<svg width="64" height="64" viewBox="-2 -2 80 80" fill="none" xmlns="http://www.w3.org/2000/svg">
<path d="M57.003 36.2682C50.5932 31.7778 42.3744 33.6092 38.064 40.3602C34.4609 46 29.0263 46.6973 26.9195 46.6973C20.0631 46.6973 15.3656 41.7318 13.9734 36.59C13.9585 36.5364 13.9511 36.4981 13.9362 36.4444C13.9213 36.3831 13.9064 36.3295 13.8915 36.2682C13.3481 34.1226 13.2066 33.0958 13.2066 30.8199C13.2066 18.5287 25.4604 4.84291 43.104 4.84291C60.7476 4.84291 71.5124 19.0038 74.1776 26.8736C74.1329 26.7356 74.0882 26.5977 74.0436 26.4521C68.9217 11.0651 54.7398 0 38.0491 0C17.0406 0 0 17.5326 0 39.1648C0 58.4981 13.5491 75.0498 32.3392 75.0498C47.325 75.0498 57.405 66.3985 62.0206 54.4828C64.5592 47.9617 62.7576 40.2989 57.003 36.2759V36.2682Z" fill="#003863"/>
<path d="M74.424 27.6408C72.2055 19.9627 61.7831 4.85156 43.1122 4.85156C25.4611 4.85156 13.2148 18.5374 13.2148 30.8286C13.2148 33.1044 13.3488 34.1313 13.8997 36.2769C13.669 35.342 13.5498 34.3995 13.5498 33.4799C13.5498 20.683 26.0046 11.8094 38.8018 11.8094C56.1327 11.8094 70.1732 26.2692 70.1732 44.1006C70.1732 58.0853 62.3564 70.1849 50.996 75.9933C65.632 70.5451 76.0916 56.1159 76.0916 39.1657C76.0916 35.1581 75.5705 31.6178 74.4165 27.6408H74.424Z" fill="#E4032E"/>
</svg>
